<svg xmlns="http://www.w3.org/2000/svg" viewBox="0 0 128 128">
  <defs>
    <linearGradient id="plate" x1="24" y1="8" x2="104" y2="120" gradientUnits="userSpaceOnUse">
      <stop stop-color="#2563eb"/>
      <stop offset="1" stop-color="#0f766e"/>
    </linearGradient>
    <linearGradient id="panel" x1="34" y1="28" x2="94" y2="100" gradientUnits="userSpaceOnUse">
      <stop stop-color="#f8fbff"/>
      <stop offset="1" stop-color="#bae6fd"/>
    </linearGradient>
    <filter id="shadow" x="-20%" y="-20%" width="140%" height="150%" color-interpolation-filters="sRGB">
      <feDropShadow dx="0" dy="4" stdDeviation="4" flood-color="#000000" flood-opacity=".32"/>
    </filter>
  </defs>

  <rect x="9" y="8" width="110" height="112" rx="28" fill="url(#plate)"/>
  <rect x="14" y="13" width="100" height="102" rx="24" fill="none" stroke="#ffffff" stroke-opacity=".28" stroke-width="1.5"/>
  <path d="M21 43c14-25 43-35 70-23" fill="none" stroke="#ffffff" stroke-opacity=".62" stroke-width="3" stroke-linecap="round"/>

  <g filter="url(#shadow)">
    <rect x="33" y="27" width="62" height="42" rx="12" fill="#f8fbff" fill-opacity=".93"/>
    <rect x="38" y="33" width="52" height="30" rx="8" fill="none" stroke="#2563eb" stroke-width="2"/>
    <path d="M55 40v16l16-8z" fill="#0f766e"/>
    <path d="M60 43v10l11-5z" fill="#22d3ee"/>
    <rect x="75" y="38" width="11" height="3" rx="1.5" fill="#2563eb"/>
    <rect x="75" y="45" width="13" height="3" rx="1.5" fill="#2563eb"/>
    <rect x="75" y="52" width="10" height="3" rx="1.5" fill="#2563eb"/>
  </g>

  <g fill="none" stroke="#ffffff" stroke-linecap="round">
    <path d="M101 14a42 42 0 0 1 18 22" stroke-width="3.5"/>
    <path d="M98 23a31 31 0 0 1 12 16" stroke-width="3"/>
    <path d="M96 32a20 20 0 0 1 7 10" stroke-width="2.5"/>
  </g>
  <circle cx="104" cy="47" r="4" fill="#e0f2fe" stroke="#67e8f9" stroke-width="1.5"/>

  <g filter="url(#shadow)">
    <rect x="27" y="72" width="74" height="28" rx="10" fill="url(#panel)"/>
    <rect x="33" y="81" width="62" height="1.8" rx=".9" fill="#2563eb"/>
    <rect x="67" y="77" width="25" height="3" rx="1.5" fill="#0f172a" fill-opacity=".85"/>
    <rect x="67" y="86" width="25" height="3" rx="1.5" fill="#0f172a" fill-opacity=".85"/>
    <rect x="67" y="95" width="25" height="3" rx="1.5" fill="#0f172a" fill-opacity=".85"/>
    <circle cx="40" cy="87" r="3.6" fill="#22c55e" stroke="#0f172a" stroke-width=".8"/>
    <circle cx="49" cy="87" r="3.6" fill="#38bdf8" stroke="#0f172a" stroke-width=".8"/>
    <circle cx="58" cy="87" r="3.6" fill="#a78bfa" stroke="#0f172a" stroke-width=".8"/>
  </g>

  <path d="M42 105l22 6 22-6" fill="none" stroke="#dbeafe" stroke-opacity=".82" stroke-width="2" stroke-linecap="round" stroke-linejoin="round"/>
  <circle cx="42" cy="105" r="3.8" fill="#e0f2fe" stroke="#ffffff" stroke-width="1.2"/>
  <circle cx="64" cy="111" r="4.5" fill="#fef3c7" stroke="#ffffff" stroke-width="1.2"/>
  <circle cx="86" cy="105" r="3.8" fill="#e0f2fe" stroke="#ffffff" stroke-width="1.2"/>
</svg>
